<?xml version="1.0" encoding="utf-8"?>
<!-- Generator: Adobe Illustrator 16.0.0, SVG Export Plug-In . SVG Version: 6.00 Build 0)  -->
<!DOCTYPE svg PUBLIC "-//W3C//DTD SVG 1.1//EN" "http://www.w3.org/Graphics/SVG/1.1/DTD/svg11.dtd">
<svg version="1.1" id="Layer_1" xmlns="http://www.w3.org/2000/svg" xmlns:xlink="http://www.w3.org/1999/xlink" x="0px" y="0px"
	 width="35.698px" height="36.316px" viewBox="0 0 35.698 36.316" enable-background="new 0 0 35.698 36.316" xml:space="preserve">
<g>
	<circle fill="#404041" cx="18.425" cy="25.46" r="1.325"/>
	<circle fill="#404041" cx="14.978" cy="23.235" r="0.833"/>
	<path fill="#404041" d="M15.391,14.949h-1.31v1.809c0.012,0.854-0.383,2.4-0.804,3.154l-3.228,5.244l1.115,0.687l3.244-5.273
		l0.01-0.012c0.557-1.043,0.961-2.619,0.972-3.8V14.949z"/>
	<path fill="#404041" d="M35.698-0.158c0,0-8.908,8.197-18.761,7.451c-3.923-0.292-8.937,0.734-12.232,4.123
		c-5.45,5.603-5.323,14.559,0.276,20.005c5.601,5.449,14.555,5.325,20.003-0.278c3.302-3.39,4.356-8.261,3.784-12.34
		C27.45,8.68,35.698-0.158,35.698-0.158z M21.466,27.36c-0.382,0.643-1.106,1.012-1.988,1.012H10.31
		c-0.881,0-1.605-0.37-1.987-1.012c-0.382-0.646-0.356-1.458,0.067-2.232l0.013-0.022l0.015-0.023l3.22-5.232
		c0.399-0.743,0.747-2.106,0.747-2.938v-2.42h-0.768v-1.31h6.555v1.31h-0.657v2.42c0,0.834,0.349,2.203,0.748,2.943l3.118,5.241
		l0.01,0.016l0.009,0.016C21.822,25.902,21.847,26.714,21.466,27.36z"/>
</g>
</svg>
