<?xml version="1.0" encoding="utf-8"?>
<!-- Generator: Adobe Illustrator 16.0.0, SVG Export Plug-In . SVG Version: 6.00 Build 0)  -->
<!DOCTYPE svg PUBLIC "-//W3C//DTD SVG 1.1//EN" "http://www.w3.org/Graphics/SVG/1.1/DTD/svg11.dtd">
<svg version="1.1" id="Layer_1" xmlns="http://www.w3.org/2000/svg" xmlns:xlink="http://www.w3.org/1999/xlink" x="0px" y="0px"
	 width="35.698px" height="36.316px" viewBox="0 0 35.698 36.316" enable-background="new 0 0 35.698 36.316" xml:space="preserve">
<path fill="#404041" d="M35.698,0c0,0-8.908,8.197-18.761,7.451c-3.923-0.292-8.937,0.734-12.232,4.123
	c-5.45,5.603-5.323,14.559,0.276,20.005c5.601,5.449,14.555,5.325,20.003-0.278c3.302-3.39,4.356-8.261,3.784-12.34
	C27.45,8.837,35.698,0,35.698,0z M13.402,29.494l-5.01-12.115l1.408-0.583l5.012,12.115L13.402,29.494z M18.423,23.937v0.005
	c-3.728-3.727-4.962-0.222-4.962-0.222l-2.971-7.136c0,0,1.833-2.465,3.944-0.298V16.28c2.96,2.961,4.962,0.222,4.962,0.222
	l2.971,7.136C22.367,23.638,20.533,26.103,18.423,23.937z"/>
</svg>
