<?xml version="1.0" encoding="utf-8"?>
<!-- Generator: Adobe Illustrator 16.0.0, SVG Export Plug-In . SVG Version: 6.00 Build 0)  -->
<!DOCTYPE svg PUBLIC "-//W3C//DTD SVG 1.1//EN" "http://www.w3.org/Graphics/SVG/1.1/DTD/svg11.dtd">
<svg version="1.1" id="Layer_1" xmlns="http://www.w3.org/2000/svg" xmlns:xlink="http://www.w3.org/1999/xlink" x="0px" y="0px"
	 width="35.698px" height="36.316px" viewBox="0 0 35.698 36.316" enable-background="new 0 0 35.698 36.316" xml:space="preserve">
<path fill="#404041" d="M35.698,0c0,0-8.908,8.197-18.761,7.451c-3.923-0.292-8.937,0.734-12.232,4.123
	c-5.45,5.603-5.323,14.559,0.276,20.005c5.601,5.449,14.555,5.325,20.003-0.278c3.302-3.39,4.356-8.261,3.784-12.34
	C27.45,8.838,35.698,0,35.698,0z M16.311,13.259c0.763,0,1.384,0.618,1.384,1.381c0,0.764-0.621,1.383-1.384,1.383
	c-0.764,0-1.382-0.619-1.382-1.383C14.929,13.877,15.547,13.259,16.311,13.259z M14.337,28.645h-3.252v-3.046l-2.486-2.486H8.598
	v-6.476h0.947c0.524,0,0.95,0.425,0.95,0.949v3.918l2.364,2.365l0.028,0.015v-0.771l-1.473-1.475c-0.283-0.28-0.283-0.74,0-1.022
	l0.512-0.513l2.409,2.41l0.001,4.973c0,0-0.001,0.001-0.001,0.002L14.337,28.645z M13.454,18.025c-0.764,0-1.383-0.621-1.383-1.384
	c0-0.764,0.619-1.381,1.383-1.381c0.763,0,1.382,0.617,1.382,1.381C14.836,17.405,14.217,18.025,13.454,18.025z M14.715,18.918
	c0-0.765,0.618-1.383,1.382-1.383s1.383,0.618,1.383,1.383c0,0.764-0.619,1.383-1.383,1.383S14.715,19.682,14.715,18.918z
	 M21.514,23.112L21.514,23.112l-2.487,2.486v3.046h-3.252v-1.157c0-0.001,0-0.002,0-0.002v-4.973l2.41-2.41l0.512,0.513
	c0.283,0.282,0.283,0.742,0,1.022l-1.475,1.475v0.771l0.031-0.015l2.363-2.365v-3.918c0-0.524,0.425-0.949,0.949-0.949h0.948V23.112
	z"/>
</svg>
