<?xml version="1.0" encoding="utf-8"?>
<!-- Generator: Adobe Illustrator 16.0.0, SVG Export Plug-In . SVG Version: 6.00 Build 0)  -->
<!DOCTYPE svg PUBLIC "-//W3C//DTD SVG 1.1//EN" "http://www.w3.org/Graphics/SVG/1.1/DTD/svg11.dtd">
<svg version="1.1" id="Layer_1" xmlns="http://www.w3.org/2000/svg" xmlns:xlink="http://www.w3.org/1999/xlink" x="0px" y="0px"
	 width="35.698px" height="36.316px" viewBox="0 0 35.698 36.316" enable-background="new 0 0 35.698 36.316" xml:space="preserve">
<path fill="#404041" d="M35.698,0c0,0-8.908,8.197-18.761,7.451c-3.923-0.292-8.937,0.734-12.232,4.123
	c-5.45,5.603-5.323,14.559,0.276,20.005c5.601,5.449,14.555,5.325,20.003-0.278c3.302-3.39,4.356-8.261,3.784-12.34
	C27.45,8.837,35.698,0,35.698,0z M20.488,29.76v-0.062c-0.001-1.773-0.376-3.29-0.988-4.604c-1.488,1.004-3.608,0.779-6.306-0.335
	c-3.75-1.547-5.339-6.296-4.905-10.67c0,0,2.167,1.392,6.687,1.988c4.115,0.544,7.762,3.377,6.079,7.062
	c-0.224-0.379-0.464-0.731-0.722-1.057c-1.429-1.806-3.342-2.809-5.233-3.132c-2.036-0.349-3.178-0.923-3.695-1.276
	c-0.413-0.228-1.438-0.86-1.438-0.86s0.172,1.075,0.554,1.46c0.699,0.617,1.978,1.265,4.407,1.684
	c1.665,0.288,3.339,1.16,4.604,2.759c1.24,1.569,2.098,3.857,2.115,7.04L20.488,29.76z"/>
</svg>
