<?xml version="1.0" encoding="utf-8"?>
<!-- Generator: Adobe Illustrator 16.0.0, SVG Export Plug-In . SVG Version: 6.00 Build 0)  -->
<!DOCTYPE svg PUBLIC "-//W3C//DTD SVG 1.1//EN" "http://www.w3.org/Graphics/SVG/1.1/DTD/svg11.dtd">
<svg version="1.1" id="Layer_1" xmlns="http://www.w3.org/2000/svg" xmlns:xlink="http://www.w3.org/1999/xlink" x="0px" y="0px"
	 width="35.698px" height="36.316px" viewBox="0 0 35.698 36.316" enable-background="new 0 0 35.698 36.316" xml:space="preserve">
<path fill="#BE1E2D" d="M27.12,7.472c-3.371-1.588-7.394-0.144-8.981,3.229c-0.11,0.234-0.206,0.528-0.29,0.869
	c-0.083-0.341-0.179-0.635-0.289-0.869c-1.589-3.372-5.609-4.817-8.981-3.229c-3.37,1.588-4.815,5.608-3.228,8.979
	c1.588,3.372,12.496,13.037,12.496,13.037s0.001-0.012,0.002-0.031c0.002,0.019,0.003,0.031,0.003,0.031s10.908-9.665,12.496-13.037
	C31.936,13.08,30.492,9.06,27.12,7.472z"/>
</svg>
