<?xml version="1.0" encoding="utf-8"?>
<!-- Generator: Adobe Illustrator 16.0.0, SVG Export Plug-In . SVG Version: 6.00 Build 0)  -->
<!DOCTYPE svg PUBLIC "-//W3C//DTD SVG 1.1//EN" "http://www.w3.org/Graphics/SVG/1.1/DTD/svg11.dtd">
<svg version="1.1" id="Layer_1" xmlns="http://www.w3.org/2000/svg" xmlns:xlink="http://www.w3.org/1999/xlink" x="0px" y="0px"
	 width="35.698px" height="36.316px" viewBox="0 0 35.698 36.316" enable-background="new 0 0 35.698 36.316" xml:space="preserve">
<path fill="#BE1E2D" d="M16.665,20.554l-3.966-3.967l-0.843,0.844c-0.466,0.465-0.466,1.221,0,1.684l2.426,2.427v1.271l-0.048-0.025
	l-3.893-3.893v-6.449c0-0.863-0.699-1.562-1.562-1.562H7.218v10.658h0.001l4.094,4.094v5.015h5.353l-0.001-1.905
	c0-0.002,0.001-0.004,0.001-0.004L16.665,20.554z M26.918,10.882c-0.862,0-1.562,0.699-1.562,1.562v6.449l-3.892,3.893l-0.05,0.025
	v-1.271l2.427-2.427c0.466-0.463,0.466-1.219,0-1.684L23,16.587l-3.967,3.967v8.186c0,0,0,0.002,0,0.004v1.905h5.354v-5.015
	l4.092-4.094h0.002V10.882H26.918z M21.839,14.636c0-1.258-1.02-2.275-2.276-2.275s-2.275,1.018-2.275,2.275
	s1.019,2.277,2.275,2.277S21.839,15.894,21.839,14.636z M15.212,8.617c-1.258,0-2.275,1.016-2.275,2.273
	c0,1.256,1.018,2.277,2.275,2.277c1.256,0,2.275-1.021,2.275-2.277C17.488,9.632,16.468,8.617,15.212,8.617z M19.916,9.872
	c1.256,0,2.276-1.02,2.276-2.276c0-1.256-1.021-2.274-2.276-2.274c-1.258,0-2.275,1.019-2.275,2.274
	C17.64,8.852,18.658,9.872,19.916,9.872z"/>
</svg>
