<?xml version="1.0" encoding="utf-8"?>
<!-- Generator: Adobe Illustrator 16.0.0, SVG Export Plug-In . SVG Version: 6.00 Build 0)  -->
<!DOCTYPE svg PUBLIC "-//W3C//DTD SVG 1.1//EN" "http://www.w3.org/Graphics/SVG/1.1/DTD/svg11.dtd">
<svg version="1.1" id="Layer_1" xmlns="http://www.w3.org/2000/svg" xmlns:xlink="http://www.w3.org/1999/xlink" x="0px" y="0px"
	 width="35.698px" height="36.316px" viewBox="0 0 35.698 36.316" enable-background="new 0 0 35.698 36.316" xml:space="preserve">
<path fill="#404041" d="M35.698,0c0,0-8.908,8.197-18.761,7.451c-3.923-0.292-8.937,0.734-12.232,4.123
	c-5.45,5.603-5.323,14.559,0.276,20.005c5.601,5.449,14.555,5.325,20.003-0.278c3.302-3.39,4.356-8.261,3.784-12.34
	C27.45,8.837,35.698,0,35.698,0z M18.368,29.816l-2.941-1.783l-2.836,1.783v-5.281l0.803-0.263l0.797-0.262l0.606,0.582l0.681,0.655
	l0.682-0.655l0.606-0.582l0.797,0.262l0.806,0.265V29.816z M20.849,19.6l-1.195,0.785l0.131,1.425l-1.416,0.188l-0.5,1.34
	l-1.359-0.444l-1.031,0.991l-1.03-0.991l-1.359,0.444l-0.5-1.34l-1.416-0.188l0.131-1.425L10.106,19.6l0.737-1.225l-0.737-1.226
	l1.196-0.786l-0.131-1.423l1.416-0.188l0.5-1.342l1.359,0.446l1.03-0.991l1.031,0.991l1.359-0.446l0.5,1.342l1.416,0.188
	l-0.131,1.423l1.195,0.786l-0.736,1.226L20.849,19.6z"/>
</svg>
