<?xml version="1.0" encoding="utf-8"?>
<!-- Generator: Adobe Illustrator 16.0.0, SVG Export Plug-In . SVG Version: 6.00 Build 0)  -->
<!DOCTYPE svg PUBLIC "-//W3C//DTD SVG 1.1//EN" "http://www.w3.org/Graphics/SVG/1.1/DTD/svg11.dtd">
<svg version="1.1" id="Layer_1" xmlns="http://www.w3.org/2000/svg" xmlns:xlink="http://www.w3.org/1999/xlink" x="0px" y="0px"
	 width="35.698px" height="36.316px" viewBox="0 0 35.698 36.316" enable-background="new 0 0 35.698 36.316" xml:space="preserve">
<g>
	<rect x="14.741" y="19.48" fill="#404041" width="1.292" height="1.292"/>
	<rect x="13.627" y="21.415" fill="#404041" width="1.292" height="1.29"/>
	<rect x="13.627" y="17.545" fill="#404041" width="1.292" height="1.292"/>
	<rect x="9.137" y="23.328" fill="#404041" width="1.291" height="1.291"/>
	<rect x="9.137" y="21.122" fill="#404041" width="1.291" height="1.291"/>
	<rect x="9.137" y="18.826" fill="#404041" width="1.291" height="1.292"/>
	<rect x="14.741" y="23.348" fill="#404041" width="1.292" height="1.291"/>
	<rect x="12.516" y="15.613" fill="#404041" width="1.292" height="1.291"/>
	<rect x="14.741" y="15.613" fill="#404041" width="1.292" height="1.291"/>
	<rect x="12.516" y="19.48" fill="#404041" width="1.292" height="1.292"/>
	<rect x="19.524" y="22.131" fill="#404041" width="1.292" height="1.292"/>
	<path fill="#404041" d="M35.67-0.272c0,0-8.908,8.197-18.761,7.451c-3.923-0.292-8.937,0.735-12.232,4.124
		c-5.45,5.603-5.323,14.559,0.276,20.006c5.6,5.448,14.555,5.324,20.003-0.278c3.302-3.39,4.356-8.261,3.784-12.34
		C27.422,8.565,35.67-0.272,35.67-0.272z M11.231,26.306H8.333v-8.118h2.898V26.306z M16.746,26.306h-4.834V14.436h4.834V26.306z
		 M21.333,26.306h-3.983v-6.974h0.571V17.79h0.705v-1.505h0.503v-1.401h0.425v1.401h0.505v1.505h0.704v1.543h0.57V26.306z"/>
	<rect x="18.008" y="20.168" fill="#404041" width="1.291" height="1.292"/>
	<rect x="18.008" y="24.127" fill="#404041" width="1.291" height="1.292"/>
	<rect x="12.516" y="23.348" fill="#404041" width="1.292" height="1.291"/>
</g>
</svg>
