<?xml version="1.0" encoding="utf-8"?>
<!-- Generator: Adobe Illustrator 16.0.0, SVG Export Plug-In . SVG Version: 6.00 Build 0)  -->
<!DOCTYPE svg PUBLIC "-//W3C//DTD SVG 1.1//EN" "http://www.w3.org/Graphics/SVG/1.1/DTD/svg11.dtd">
<svg version="1.1" id="Layer_1" xmlns="http://www.w3.org/2000/svg" xmlns:xlink="http://www.w3.org/1999/xlink" x="0px" y="0px"
	 width="35.698px" height="36.316px" viewBox="0 0 35.698 36.316" enable-background="new 0 0 35.698 36.316" xml:space="preserve">
<g>
	<path fill="#404041" d="M19.902,21.65c0-0.366-0.025-0.963-0.059-1.327l-0.324-3.099c-0.033-0.364-0.359-0.662-0.725-0.662H10.05
		c-0.365,0-0.692,0.298-0.723,0.662l-0.326,3.099c-0.033,0.363-0.059,0.961-0.059,1.327v0.385h10.959V21.65z"/>
	<path fill="#404041" d="M12.662,15.752h3.521c0.38,0,0.69-0.308,0.69-0.69c0-0.381-0.311-0.69-0.69-0.69h-3.521
		c-0.381,0-0.689,0.309-0.689,0.69C11.972,15.444,12.281,15.752,12.662,15.752z"/>
	<circle fill="#404041" cx="9.734" cy="24.452" r="1.008"/>
	<path fill="#404041" d="M35.349,0c0,0-8.908,8.197-18.761,7.451c-3.923-0.292-8.937,0.735-12.232,4.124
		c-5.45,5.602-5.323,14.558,0.276,20.005c5.6,5.448,14.555,5.324,20.003-0.277c3.302-3.39,4.356-8.261,3.784-12.34
		C27.101,8.837,35.349,0,35.349,0z M21.414,26.451h-1.085v1.154c0,0.671-0.546,1.217-1.218,1.217s-1.217-0.546-1.217-1.217v-1.154
		h-6.943v1.154c0,0.673-0.546,1.217-1.217,1.217c-0.672,0-1.217-0.544-1.217-1.217v-1.154H7.431v-4.605
		c0-0.466,0.035-1.228,0.076-1.692l0.414-5.024c0.041-0.464,0.453-0.896,0.916-0.959c0,0,1.377-0.475,5.584-0.475
		s5.585,0.475,5.585,0.475c0.464,0.063,0.875,0.495,0.917,0.959l0.414,5.024c0.041,0.464,0.076,1.226,0.076,1.692V26.451z"/>
	<circle fill="#404041" cx="19.111" cy="24.452" r="1.008"/>
</g>
</svg>
