<?xml version="1.0" encoding="utf-8"?>
<!-- Generator: Adobe Illustrator 16.0.0, SVG Export Plug-In . SVG Version: 6.00 Build 0)  -->
<!DOCTYPE svg PUBLIC "-//W3C//DTD SVG 1.1//EN" "http://www.w3.org/Graphics/SVG/1.1/DTD/svg11.dtd">
<svg version="1.1" id="Layer_1" xmlns="http://www.w3.org/2000/svg" xmlns:xlink="http://www.w3.org/1999/xlink" x="0px" y="0px"
	 width="35.698px" height="36.316px" viewBox="0 0 35.698 36.316" enable-background="new 0 0 35.698 36.316" xml:space="preserve">
<path fill="#404041" d="M35.698,0c0,0-8.908,8.197-18.761,7.451c-3.923-0.292-8.937,0.735-12.232,4.123
	c-5.45,5.603-5.323,14.559,0.276,20.006c5.601,5.449,14.555,5.325,20.003-0.277c3.302-3.39,4.356-8.261,3.784-12.34
	C27.45,8.837,35.698,0,35.698,0z M20.524,26.934l-1.12-0.928c-1.167,1.199-2.737,1.821-4.313,1.821h-0.005
	c-1.356,0.001-2.729-0.458-3.853-1.393c-1.433-1.191-2.177-2.914-2.176-4.64c0-0.102,0.003-0.202,0.009-0.303l1.703-0.319
	c-0.031,0.206-0.046,0.413-0.046,0.622c0.002,1.255,0.535,2.494,1.574,3.358c0.818,0.68,1.802,1.008,2.788,1.01
	c1.104-0.002,2.196-0.415,3.032-1.222l-1.286-1.065l3.699-0.707L20.524,26.934z M21.115,22.02l-1.695,0.324
	c0.022-0.181,0.034-0.362,0.034-0.544c-0.001-1.255-0.534-2.495-1.575-3.359c-0.817-0.679-1.802-1.008-2.787-1.009
	c-1.095,0.001-2.176,0.407-3.009,1.201l1.226,1.021L9.61,20.348l0.018-3.765L10.8,17.56c1.166-1.182,2.727-1.795,4.292-1.794
	c1.356-0.001,2.728,0.458,3.853,1.393c1.433,1.192,2.178,2.913,2.176,4.641C21.12,21.873,21.118,21.946,21.115,22.02z"/>
</svg>
