<?xml version="1.0" encoding="utf-8"?>
<!-- Generator: Adobe Illustrator 16.0.0, SVG Export Plug-In . SVG Version: 6.00 Build 0)  -->
<!DOCTYPE svg PUBLIC "-//W3C//DTD SVG 1.1//EN" "http://www.w3.org/Graphics/SVG/1.1/DTD/svg11.dtd">
<svg version="1.1" id="Layer_1" xmlns="http://www.w3.org/2000/svg" xmlns:xlink="http://www.w3.org/1999/xlink" x="0px" y="0px"
	 width="415.207px" height="79.728px" viewBox="0 0 415.207 79.728" enable-background="new 0 0 415.207 79.728"
	 xml:space="preserve">
<g>
	<path fill="#BE1E2D" d="M78.414,0c0,0-19.956,18.361-42.029,16.691c-8.79-0.656-20.023,1.645-27.406,9.238
		C-3.233,38.482-2.95,58.545,9.596,70.75c12.549,12.207,32.609,11.93,44.816-0.621c7.396-7.594,9.76-18.51,8.479-27.646
		C59.938,19.798,78.414,0,78.414,0z M39.259,41.379h-1.243c-2.821,0-4.351,1.959-4.351,7.752v8.134c0,1.868-0.769,3.493-3.493,3.493
		c-2.728,0-3.496-1.625-3.496-3.493V37.741c0-2.101,1.386-3.255,3.16-3.255c1.77,0,3.16,1.154,3.16,3.255v2.681h0.092
		c0.82-2.917,2.392-5.936,5.793-5.936c2.201,0,3.827,1.44,3.827,3.399C42.708,40.472,40.986,41.379,39.259,41.379z"/>
	<g>
		<path fill="#FFFFFF" d="M87.951,32.459c6.18,0,10.782,3.493,10.782,6.934c0,2.127-1.569,3.189-3.44,3.189
			c-3.489,0-2.227-4.354-7.539-4.354c-2.886,0-6.277,1.975-6.277,8.657c0,4.604,2.173,7.593,6.229,7.593
			c5.162,0,4.041-4.759,7.94-4.759c1.873,0,3.087,1.367,3.087,2.836c0,3.236-3.643,7.691-11.235,7.691
			c-9.107,0-13.413-5.619-13.413-13.361C74.085,38.381,78.893,32.459,87.951,32.459z"/>
		<path fill="#FFFFFF" d="M115.234,32.459c8.911,0,13.671,6.074,13.671,13.869c0,7.389-3.595,13.918-13.671,13.918
			c-10.066,0-13.665-6.529-13.665-13.918C101.569,38.533,106.332,32.459,115.234,32.459z M115.234,54.78
			c4.408,0,6.28-3.948,6.28-8.451c0-4.809-1.979-8.402-6.28-8.402c-4.301,0-6.276,3.593-6.276,8.402
			C108.958,50.832,110.838,54.78,115.234,54.78z"/>
		<path fill="#FFFFFF" d="M134.072,26.183c0-2.429,1.462-3.695,3.694-3.695c2.224,0,3.693,1.267,3.693,3.695v30.371
			c0,2.428-1.47,3.693-3.693,3.693c-2.232,0-3.694-1.266-3.694-3.693V26.183z"/>
		<path fill="#FFFFFF" d="M160.287,32.459c8.911,0,13.665,6.074,13.665,13.869c0,7.389-3.592,13.918-13.665,13.918
			s-13.668-6.529-13.668-13.918C146.619,38.533,151.382,32.459,160.287,32.459z M160.287,54.78c4.408,0,6.276-3.948,6.276-8.451
			c0-4.809-1.975-8.402-6.276-8.402s-6.273,3.593-6.273,8.402C154.014,50.832,155.885,54.78,160.287,54.78z"/>
		<path fill="#FFFFFF" d="M179.12,35.902c0-2.228,1.464-3.442,3.341-3.442c1.872,0,3.338,1.214,3.338,3.442v2.834h0.102
			c0.863-3.087,2.533-6.277,6.126-6.277c2.329,0,4.05,1.519,4.05,3.595c0,2.73-1.82,3.693-3.648,3.693h-1.312
			c-2.985,0-4.606,2.075-4.606,8.2v8.605c0,1.974-0.81,3.693-3.695,3.693c-2.884,0-3.693-1.72-3.693-3.693V35.902z"/>
		<path fill="#FFFFFF" d="M208.121,35.902c0-2.228,1.473-3.442,3.345-3.442c1.874,0,3.337,1.214,3.337,3.442v2.834h0.102
			c0.859-3.087,2.534-6.277,6.129-6.277c2.326,0,4.048,1.519,4.048,3.595c0,2.73-1.821,3.693-3.646,3.693h-1.319
			c-2.983,0-4.604,2.075-4.604,8.2v8.605c0,1.974-0.812,3.693-3.691,3.693c-2.89,0-3.7-1.72-3.7-3.693V35.902z"/>
		<path fill="#FFFFFF" d="M233.992,47.744c0,3.901,2.527,6.734,6.832,6.734c5.567,0,5.567-3.646,8.554-3.646
			c1.769,0,3.037,1.519,3.037,2.886c0,4.455-7.138,6.529-11.591,6.529c-10.32,0-14.224-6.984-14.224-13.413
			c0-8.605,5.212-14.374,13.973-14.374c8.5,0,13.357,6.024,13.357,12.098c0,2.531-0.756,3.187-3.237,3.187H233.992z M246.947,43.493
			c-0.404-3.392-2.935-5.872-6.224-5.872c-3.698,0-5.925,2.279-6.731,5.872H246.947z"/>
		<path fill="#FFFFFF" d="M271.142,32.459c6.177,0,10.782,3.493,10.782,6.934c0,2.127-1.566,3.189-3.441,3.189
			c-3.492,0-2.227-4.354-7.539-4.354c-2.886,0-6.277,1.975-6.277,8.657c0,4.604,2.173,7.593,6.225,7.593
			c5.165,0,4.054-4.759,7.943-4.759c1.881,0,3.09,1.367,3.09,2.836c0,3.236-3.643,7.691-11.237,7.691
			c-9.109,0-13.411-5.619-13.411-13.361C257.275,38.381,262.086,32.459,271.142,32.459z"/>
		<path fill="#FFFFFF" d="M298.428,32.459c8.912,0,13.665,6.074,13.665,13.869c0,7.389-3.592,13.918-13.665,13.918
			c-10.072,0-13.665-6.529-13.665-13.918C284.763,38.533,289.517,32.459,298.428,32.459z M298.428,54.78
			c4.402,0,6.273-3.948,6.273-8.451c0-4.809-1.972-8.402-6.273-8.402c-4.305,0-6.277,3.593-6.277,8.402
			C292.15,50.832,294.025,54.78,298.428,54.78z"/>
		<path fill="#FFFFFF" d="M314.422,38.18c-0.2-0.609-0.454-1.418-0.454-1.875c0-2.631,1.824-3.845,3.595-3.845
			c2.783,0,3.492,2.327,3.693,3.086l4.963,16.705h0.098l4.963-16.705c0.2-0.759,0.909-3.086,3.697-3.086
			c1.769,0,3.593,1.214,3.593,3.845c0,0.457-0.258,1.266-0.458,1.875l-6.986,19.436c-0.71,1.975-1.166,2.631-4.854,2.631
			c-3.696,0-4.154-0.656-4.861-2.631L314.422,38.18z"/>
		<path fill="#FFFFFF" d="M348.14,47.744c0,3.901,2.528,6.734,6.826,6.734c5.57,0,5.57-3.646,8.56-3.646
			c1.769,0,3.033,1.519,3.033,2.886c0,4.455-7.134,6.529-11.593,6.529c-10.324,0-14.217-6.984-14.217-13.413
			c0-8.605,5.212-14.374,13.967-14.374c8.502,0,13.363,6.024,13.363,12.098c0,2.531-0.763,3.187-3.238,3.187H348.14z M361.09,43.493
			c-0.399-3.392-2.934-5.872-6.225-5.872c-3.692,0-5.918,2.279-6.726,5.872H361.09z"/>
		<path fill="#FFFFFF" d="M373.247,35.902c0-2.228,1.464-3.442,3.332-3.442c1.881,0,3.345,1.214,3.345,3.442v2.834h0.103
			c0.86-3.087,2.531-6.277,6.124-6.277c2.323,0,4.05,1.519,4.05,3.595c0,2.73-1.824,3.693-3.646,3.693h-1.315
			c-2.986,0-4.606,2.075-4.606,8.2v8.605c0,1.974-0.811,3.693-3.696,3.693c-2.883,0-3.689-1.72-3.689-3.693V35.902z"/>
		<path fill="#FFFFFF" d="M403.256,52.504h0.104l4.506-16.754c0.505-1.874,1.517-3.291,3.542-3.291c2.936,0,3.799,2.43,3.799,3.341
			c0,0.608-0.207,1.366-0.56,2.326l-8.556,24.248c-1.769,5.061-3.793,7.692-8.453,7.692c-3.288,0-4.659-1.618-4.659-3.392
			c0-1.975,1.423-2.986,3.397-2.986h0.757c0.964,0,2.024-0.049,2.577-2.324l-7.689-21.919c-0.606-1.774-0.914-2.582-0.914-3.441
			c0-2.026,1.627-3.544,3.596-3.544c1.978,0,3.341,1.113,3.8,2.784L403.256,52.504z"/>
	</g>
</g>
</svg>
